<?xml version="1.0" encoding="utf-8"?>
<!-- Generator: Adobe Illustrator 24.0.2, SVG Export Plug-In . SVG Version: 6.00 Build 0)  -->
<!DOCTYPE svg PUBLIC "-//W3C//DTD SVG 1.1//EN" "http://www.w3.org/Graphics/SVG/1.1/DTD/svg11.dtd" [
	<!ENTITY ns_extend "http://ns.adobe.com/Extensibility/1.0/">
	<!ENTITY ns_ai "http://ns.adobe.com/AdobeIllustrator/10.0/">
	<!ENTITY ns_graphs "http://ns.adobe.com/Graphs/1.0/">
	<!ENTITY ns_vars "http://ns.adobe.com/Variables/1.0/">
	<!ENTITY ns_imrep "http://ns.adobe.com/ImageReplacement/1.0/">
	<!ENTITY ns_sfw "http://ns.adobe.com/SaveForWeb/1.0/">
	<!ENTITY ns_custom "http://ns.adobe.com/GenericCustomNamespace/1.0/">
	<!ENTITY ns_adobe_xpath "http://ns.adobe.com/XPath/1.0/">
]>
<svg version="1.1" id="Layer_1" xmlns:x="&ns_extend;" xmlns:i="&ns_ai;" xmlns:graph="&ns_graphs;"
	 xmlns="http://www.w3.org/2000/svg" xmlns:xlink="http://www.w3.org/1999/xlink" x="0px" y="0px" viewBox="0 0 24 24"
	 enable-background="new 0 0 24 24" xml:space="preserve">
<metadata>
	<sfw  xmlns="&ns_sfw;">
		<slices></slices>
		<sliceSourceBounds  bottomLeftOrigin="true" height="16.4" width="22.06" x="0.97" y="-20.2"></sliceSourceBounds>
	</sfw>
</metadata>
<g>
	<path stroke="#000000" stroke-linecap="round" stroke-linejoin="round" stroke-miterlimit="10" d="M2.04,5.84h19.92
		c0.32,0,0.57-0.35,0.57-0.77c0-0.42-0.26-0.77-0.57-0.77H2.04c-0.31,0-0.57,0.35-0.57,0.77C1.47,5.5,1.72,5.84,2.04,5.84z"/>
	<path stroke="#000000" stroke-linecap="round" stroke-linejoin="round" stroke-miterlimit="10" d="M1.83,10.46h12.41
		c0.2,0,0.36-0.35,0.36-0.77c0-0.42-0.16-0.77-0.36-0.77H1.83c-0.2,0-0.35,0.35-0.35,0.77C1.47,10.12,1.63,10.46,1.83,10.46z"/>
	<path stroke="#000000" stroke-linecap="round" stroke-linejoin="round" stroke-miterlimit="10" d="M21.95,13.54H2.04
		c-0.31,0-0.57,0.35-0.57,0.77c0,0.43,0.26,0.77,0.57,0.77h19.92c0.32,0,0.57-0.35,0.57-0.77C22.53,13.89,22.27,13.54,21.95,13.54z"
		/>
	<path stroke="#000000" stroke-linecap="round" stroke-linejoin="round" stroke-miterlimit="10" d="M14.23,18.16H1.94
		c-0.2,0-0.35,0.35-0.35,0.77c0,0.43,0.16,0.77,0.35,0.77h12.29c0.2,0,0.35-0.35,0.35-0.77C14.59,18.5,14.43,18.16,14.23,18.16z"/>
</g>
</svg>
